<?xml version="1.0" encoding="UTF-8" standalone="no"?>
<!-- Uploaded to: SVG Repo, www.svgrepo.com, Generator: SVG Repo Mixer Tools -->

<svg
   width="800px"
   height="800px"
   viewBox="0 -4 28 28"
   fill="none"
   version="1.1"
   id="svg9"
   sodipodi:docname="flag-es – kópia.svg"
   inkscape:version="1.3.2 (091e20e, 2023-11-25, custom)"
   xmlns:inkscape="http://www.inkscape.org/namespaces/inkscape"
   xmlns:sodipodi="http://sodipodi.sourceforge.net/DTD/sodipodi-0.dtd"
   xmlns="http://www.w3.org/2000/svg"
   xmlns:svg="http://www.w3.org/2000/svg">
  <sodipodi:namedview
     id="namedview9"
     pagecolor="#ffffff"
     bordercolor="#666666"
     borderopacity="1.0"
     inkscape:showpageshadow="2"
     inkscape:pageopacity="0.0"
     inkscape:pagecheckerboard="0"
     inkscape:deskcolor="#d1d1d1"
     inkscape:zoom="0.98375"
     inkscape:cx="399.49174"
     inkscape:cy="400"
     inkscape:window-width="1920"
     inkscape:window-height="1001"
     inkscape:window-x="951"
     inkscape:window-y="-9"
     inkscape:window-maximized="1"
     inkscape:current-layer="svg9" />
  <g
     clip-path="url(#clip0_503_3600)"
     id="g9"
     style="filter:url(#filter41)">
    <rect
       width="28"
       height="20"
       rx="2"
       fill="white"
       id="rect1" />
    <mask
       id="mask0_503_3600"
       style="mask-type:alpha"
       maskUnits="userSpaceOnUse"
       x="0"
       y="0"
       width="28"
       height="20">
      <rect
         width="28"
         height="20"
         rx="2"
         fill="white"
         id="rect2" />
    </mask>
    <g
       mask="url(#mask0_503_3600)"
       id="g8">
      <path
         fill-rule="evenodd"
         clip-rule="evenodd"
         d="M0 5.33333H28V0H0V5.33333Z"
         fill="#DD172C"
         id="path2" />
      <path
         fill-rule="evenodd"
         clip-rule="evenodd"
         d="M0 20H28V14.6667H0V20Z"
         fill="#DD172C"
         id="path3" />
      <path
         fill-rule="evenodd"
         clip-rule="evenodd"
         d="M0 14.6667H28V5.33334H0V14.6667Z"
         fill="#FFD133"
         id="path4" />
      <path
         fill-rule="evenodd"
         clip-rule="evenodd"
         d="M7.33337 9.33333H8.66671V10H7.33337V9.33333Z"
         fill="#FFEDB1"
         id="path5" />
      <path
         d="M6.39116 8.99999H8.27543C8.47044 8.99999 8.6238 9.16666 8.60761 9.361L8.43633 11.4164C8.39314 11.9347 7.95987 12.3333 7.43978 12.3333H7.2268C6.70671 12.3333 6.27345 11.9347 6.23026 11.4164L6.05898 9.36101C6.04278 9.16667 6.19615 8.99999 6.39116 8.99999Z"
         stroke="#A41517"
         stroke-width="0.666667"
         id="path6" />
      <path
         fill-rule="evenodd"
         clip-rule="evenodd"
         d="M6 10H8.66667V10.6667H8L7.33333 12L6.66667 10.6667H6V10Z"
         fill="#A41517"
         id="path7" />
      <rect
         x="4"
         y="8"
         width="1.33333"
         height="4.66667"
         rx="0.666667"
         fill="#A41517"
         id="rect7" />
      <rect
         x="9.33337"
         y="8"
         width="1.33333"
         height="4.66667"
         rx="0.666667"
         fill="#A41517"
         id="rect8" />
      <path
         d="M6 7.73332C6 7.14422 6.47756 6.66666 7.06667 6.66666H7.6C8.1891 6.66666 8.66667 7.14422 8.66667 7.73332V7.73332C8.66667 7.8806 8.54728 7.99999 8.4 7.99999H6.26667C6.11939 7.99999 6 7.8806 6 7.73332V7.73332Z"
         fill="#A41517"
         id="path8" />
    </g>
  </g>
  <defs
     id="defs9">
    <clipPath
       id="clip0_503_3600">
      <rect
         width="28"
         height="20"
         rx="2"
         fill="white"
         id="rect9" />
    </clipPath>
    <filter
       style="color-interpolation-filters:sRGB;"
       height="1"
       width="1"
       y="0"
       x="0"
       inkscape:label="Color Blindness"
       id="filter41">
      <feColorMatrix
         values="0.299 0.587 0.114 0 0 0.299 0.587 0.114 0 0 0.299 0.587 0.114 0 0 0 0 0 1 0 "
         type="matrix"
         result="fbSourceGraphic"
         id="feColorMatrix41" />
      <feColorMatrix
         result="fbSourceGraphicAlpha"
         in="fbSourceGraphic"
         values="0 0 0 -1 0 0 0 0 -1 0 0 0 0 -1 0 0 0 0 1 0"
         id="feColorMatrix42" />
      <feColorMatrix
         id="feColorMatrix43"
         values="0.299 0.587 0.114 0 0 0.299 0.587 0.114 0 0 0.299 0.587 0.114 0 0 0 0 0 1 0 "
         type="matrix"
         result="colormatrix1"
         in="fbSourceGraphic" />
    </filter>
  </defs>
</svg>
